<svg id="Layer_5" enable-background="new 0 0 64 64" height="512" viewBox="0 0 64 64" width="512" xmlns="http://www.w3.org/2000/svg" xmlns:xlink="http://www.w3.org/1999/xlink"><linearGradient id="SVGID_1_" gradientUnits="userSpaceOnUse" x1="32.3" x2="32.3" y1="58.081" y2="9"><stop offset="0" stop-color="#9f2fff"/><stop offset="1" stop-color="#0bb1d3"/></linearGradient><path d="m51 44h-9.012c1.635-2.176 2.818-4.657 3.455-7.306l3.557-.92v-7.553l-3.552-.899c-.487-2.028-1.29-3.959-2.395-5.758l1.882-3.157-5.344-5.343-3.157 1.881c-1.798-1.104-3.729-1.908-5.757-2.395l-.899-3.55h-7.557l-.899 3.552c-2.028.487-3.959 1.29-5.757 2.395l-3.157-1.881-5.344 5.343 1.882 3.157c-1.104 1.798-1.908 3.73-2.395 5.758l-3.551.898v7.555l3.554.907c.65 2.708 1.856 5.18 3.469 7.316h-9.023v8h25 25v6.081l12.601-10.081-12.601-10.081zm-48 6v-4h8.762c1.617 1.638 3.504 2.994 5.585 4zm50-7.919 7.399 5.919-7.399 5.919v-3.919h-27c-8.495 0-15.907-6.029-17.625-14.335l-.127-.612-3.248-.83v-4.445l3.246-.821.127-.614c.456-2.208 1.325-4.298 2.583-6.212l.344-.523-1.72-2.886 3.142-3.142 2.886 1.721.523-.344c1.914-1.258 4.004-2.127 6.212-2.583l.614-.127.821-3.247h4.443l.821 3.246.614.127c2.208.456 4.298 1.325 6.212 2.583l.523.344 2.886-1.721 3.142 3.142-1.72 2.886.344.523c1.258 1.914 2.127 4.004 2.583 6.212l.127.614 3.247.822v4.447l-3.251.841-.126.609c-.643 3.096-2.103 5.961-4.22 8.324h-6.228c4.08-2.448 6.825-6.903 6.825-11.999 0-7.72-6.28-14-14-14s-14 6.28-14 14 6.28 14 14 14h27zm-27 1.919c-6.617 0-12-5.383-12-12s5.383-12 12-12 12 5.383 12 12-5.383 12-12 12zm-6.993-8.111c.289.518.635 1.003 1.03 1.445l-1.49 1.334c-.493-.551-.926-1.158-1.287-1.805zm-.907-5.156-1.976-.314c.117-.73.315-1.449.59-2.137l1.857.742c-.22.55-.379 1.125-.471 1.709zm.222 3.52-1.919.562c-.208-.709-.337-1.445-.383-2.186l1.996-.123c.037.593.14 1.181.306 1.747zm10.678-2.253c0-1.302-.839-2.402-2-2.816v-7.184h-2v7.184c-1.161.414-2 1.514-2 2.816 0 1.654 1.346 3 3 3 .462 0 .894-.113 1.285-.301l3.008 3.008 1.414-1.414-3.008-3.008c.188-.391.301-.823.301-1.285zm-3 1c-.551 0-1-.449-1-1s.449-1 1-1 1 .449 1 1-.449 1-1 1z" fill="url(#SVGID_1_)"/></svg>